<svg width="369" height="259" xmlns="http://www.w3.org/2000/svg" class="icon">
 <defs>
  <style type="text/css">@font-face {
  font-family: "weel-translate";
  font-style: normal;
  font-weight: normal;
  src: url("moz-extension://6df79949-f4b5-4469-9d15-fba558fbc8ad/fonts/weel-translate.ttf") format("truetype"), url("moz-extension://6df79949-f4b5-4469-9d15-fba558fbc8ad/fonts/weel-translate.woff") format("woff");
}
@font-face {
  font-family: "weel-translate";
  font-style: normal;
  font-weight: normal;
  src: url("moz-extension://6df79949-f4b5-4469-9d15-fba558fbc8ad/fonts/weel-translate.ttf") format("truetype"), url("moz-extension://6df79949-f4b5-4469-9d15-fba558fbc8ad/fonts/weel-translate.woff") format("woff");
}
@font-face {
  font-family: "weel-translate";
  font-style: normal;
  font-weight: normal;
  src: url("moz-extension://6df79949-f4b5-4469-9d15-fba558fbc8ad/fonts/weel-translate.ttf") format("truetype"), url("moz-extension://6df79949-f4b5-4469-9d15-fba558fbc8ad/fonts/weel-translate.woff") format("woff");
}
@font-face {
  font-family: "weel-translate";
  font-style: normal;
  font-weight: normal;
  src: url("moz-extension://6df79949-f4b5-4469-9d15-fba558fbc8ad/fonts/weel-translate.ttf") format("truetype"), url("moz-extension://6df79949-f4b5-4469-9d15-fba558fbc8ad/fonts/weel-translate.woff") format("woff");
}</style>
 </defs>
 <g>
  <title>background</title>
  <rect x="-1" y="-1" width="371" height="261" id="canvas_background" fill="none"/>
 </g>
 <g>
  <title>Layer 1</title>
  <g stroke="null" id="svg_12">
   <g stroke="null" id="svg_13">
    <path stroke="null" d="m185.829499,148.725054s85.857373,-0.823937 98.802458,60.558963l-24.420727,6.866099l4.128439,26.365805a68.364019,67.081763 0 0 1 -30.928252,-1.510536a71.792719,70.446143 0 0 1 -47.581906,-90.701132l0,-1.5792l-0.00001,0z" fill="#54dea8" id="svg_1"/>
    <path stroke="null" d="m194.506205,129.637302s41.984045,-73.261243 102.720961,-53.555546l-6.43755,24.16866l25.330371,9.681199a68.853834,67.56239 0 0 1 -16.793624,25.541868a71.722744,70.37748 0 0 1 -103.910504,-4.600281l-0.909654,-1.2359z" fill="#ffc0cb" id="svg_2"/>
    <path stroke="null" d="m180.371577,123.869785s-61.156756,-58.773782 -26.100085,-111.162091l22.181571,12.152989l16.373785,-21.559542a68.364019,67.081763 0 0 1 20.992017,22.520797a71.862684,70.514807 0 0 1 -31.418056,97.361239l-2.029232,0.686609z" fill="#ffc0cb" id="svg_3"/>
    <path stroke="null" d="m169.10586,133.756965s-73.751966,42.638457 -116.225826,-4.119663l17.703268,-17.920506l-17.073514,-20.598288a68.22407,66.944435 0 0 1 27.569528,-13.732188a71.792719,70.446143 0 0 1 87.67668,54.928764l0.349864,1.441882z" fill="#ffc0cb" id="svg_4"/>
    <path stroke="null" d="m171.83482,146.596563s23.021249,80.951269 -34.007067,109.102265l-12.87511,-21.35356l-24.980506,10.711117a67.80423,66.532472 0 0 1 -6.43756,-29.661541a71.722744,70.37748 0 0 1 76.970751,-68.660962l1.329493,-0.137318z" fill="#ffc0cb" id="svg_5"/>
    <path stroke="null" d="m185.829499,148.725054s85.857373,-0.823937 98.802458,60.558963l-24.420727,6.866099l4.128439,26.365805a68.364019,67.081763 0 0 1 -30.928252,-1.510536a71.792719,70.446143 0 0 1 -47.581906,-90.701132l0,-1.5792l-0.00001,0z" fill="#00bf00" id="svg_7"/>
    <path stroke="null" d="m194.506205,129.637302s41.984045,-73.261243 102.720961,-53.555546l-6.43755,24.16866l25.330371,9.681199a68.853834,67.56239 0 0 1 -16.793624,25.541868a71.722744,70.37748 0 0 1 -103.910504,-4.600281l-0.909654,-1.2359z" fill="#ffc0cb" id="svg_8"/>
    <path stroke="null" d="m180.371577,123.869785s-61.156756,-58.773782 -26.100085,-111.162091l22.181571,12.152989l16.373785,-21.559542a68.364019,67.081763 0 0 1 20.992017,22.520797a71.862684,70.514807 0 0 1 -31.418056,97.361239l-2.029232,0.686609z" fill="#ffc0cb" id="svg_9"/>
    <path stroke="null" d="m169.10586,133.756965s-73.751966,42.638457 -116.225826,-4.119663l17.703268,-17.920506l-17.073514,-20.598288a68.22407,66.944435 0 0 1 27.569528,-13.732188a71.792719,70.446143 0 0 1 87.67668,54.928764l0.349864,1.441882z" fill="#ffc0cb" id="svg_10"/>
    <path stroke="null" d="m171.83482,146.596563s23.021249,80.951269 -34.007067,109.102265l-12.87511,-21.35356l-24.980506,10.711117a67.80423,66.532472 0 0 1 -6.43756,-29.661541a71.722744,70.37748 0 0 1 76.970751,-68.660962l1.329493,-0.137318z" fill="#ffc0cb" id="svg_11"/>
   </g>
   <text stroke="null" transform="matrix(2.3702051639556885,0,0,1.1278295516967773,-469.98037123680115,-5.618508264422417) " xml:space="preserve" text-anchor="start" font-family="Helvetica, Arial, sans-serif" font-size="63" id="svg_15" y="100.9375" x="345.953331" fill-opacity="null" stroke-opacity="null" stroke-width="0" fill="#56aaff"/>
  </g>
 </g>
</svg>