<?xml version="1.0" encoding="UTF-8" standalone="no"?>
<svg width="428px" height="330px" viewBox="0 0 428 330" version="1.1" xmlns="http://www.w3.org/2000/svg" xmlns:xlink="http://www.w3.org/1999/xlink" xmlns:sketch="http://www.bohemiancoding.com/sketch/ns">
    <!-- Generator: Sketch 3.0.4 (8053) - http://www.bohemiancoding.com/sketch -->
    <title>Imported Layers</title>
    <desc>Created with Sketch.</desc>
    <defs></defs>
    <g id="Page-1" stroke="none" stroke-width="1" fill="none" fill-rule="evenodd" sketch:type="MSPage">
        <g id="Imported-Layers" sketch:type="MSLayerGroup" transform="translate(1.000000, 0.000000)">
            <path d="M215.399,281.526 L215.399,281.526 C148.473,281.526 94.218,288.346 94.218,296.757 C94.218,299.936 101.978,302.89 115.243,305.331 C109.436,305.146 103.409,305.047 97.214,305.047 C51.505,305.047 14.451,310.351 14.451,316.893 C14.451,323.435 51.502,328.739 97.208,328.739 C100.099,328.739 102.976,328.817 105.846,328.817 C109.716,328.817 113.573,328.676 117.437,328.014 C129.643,325.92 141.158,320.994 153.449,319.217 C161.168,318.099 168.968,317.731 176.756,317.479 C189.072,317.08 201.326,315.893 213.389,313.327 C216.84,312.595 220.33,311.982 223.868,311.957 C226.517,311.939 229.166,311.911 231.815,311.872 C242.409,311.719 253.002,311.391 263.582,310.81 C264.852,310.739 266.121,310.666 267.391,310.589 C277.51,313.681 290.084,315.449 301.752,315.449 C313.437,315.449 324.214,313.677 330.722,309.689 C342.892,311.015 355.176,311.406 367.412,311.406 C398.455,311.406 423.62,308.244 423.62,304.343 C423.62,300.441 398.455,297.278 367.412,297.278 C358.832,297.278 350.034,298.506 341.412,298.506 C339.647,298.506 337.891,298.455 336.144,298.331 C332.704,289.846 322.15,288.964 314.23,287.784 C295.435,284.986 276.336,283.298 257.364,282.376 C243.392,281.697 229.386,281.526 215.399,281.526" id="Fill-1" fill="#B2AEB4" sketch:type="MSShapeGroup"></path>
            <path d="M215.387,183.367 C215.288,185.766 214.624,188.047 213.416,190.148 L212.986,190.894 L212.313,191.495 C206.284,196.872 193.928,196.871 184.355,194.482 C175.546,192.285 170.083,188.439 168.973,183.65 L168.826,183.018 L168.859,182.372 C169.218,175.31 173.951,168.665 181.213,165.031 C187.814,161.73 195.416,161.481 202.069,164.355 C210.098,167.82 215.699,175.816 215.387,183.366 L215.387,183.367" id="Fill-2" fill="#0F1120" sketch:type="MSShapeGroup"></path>
            <path d="M295.984,251.897 C296.549,256.367 286.019,264.006 281.003,262.909 C274.06,242.163 262.758,214.394 255.101,203.682 C256.788,200.942 271.552,200.765 273.956,199.787 C275.489,206.389 291.749,241.491 295.984,251.897" id="Fill-3" fill="#0F1120" sketch:type="MSShapeGroup"></path>
            <path d="M309.638,267.641 C305.143,267.935 298.149,256.966 299.544,252.025 C320.67,246.341 349.067,236.724 360.221,229.724 C362.854,231.571 362.144,246.32 362.977,248.777 C356.293,249.912 320.279,264.036 309.638,267.641" id="Fill-4" fill="#0F1120" sketch:type="MSShapeGroup"></path>
            <path d="M310.32,293.989 C305.84,293.52 300.8,281.526 303.01,276.893 C324.793,274.858 354.406,270.177 366.581,265.162 C368.865,267.428 365.674,281.845 366.079,284.408 C359.301,284.397 321.418,292.234 310.32,293.989" id="Fill-5" fill="#0F1120" sketch:type="MSShapeGroup"></path>
            <path d="M296.512,281.86 C299.849,284.887 296.828,297.54 292.306,299.972 C273.532,288.741 246.876,275.018 234.09,271.869 C233.587,268.691 244.681,258.947 245.868,256.64 C251.33,260.653 286.522,276.718 296.512,281.86" id="Fill-6" fill="#0F1120" sketch:type="MSShapeGroup"></path>
            <path d="M169.037,225.47 C172.684,227.843 171.724,240.892 167.776,244.124 C147.643,245.36 127.9,242.726 107.903,227.09 C106.939,224.046 116.051,212.384 116.833,209.888 C130.633,224.968 151.202,226.963 169.037,225.47" id="Fill-7" fill="#0F1120" sketch:type="MSShapeGroup"></path>
            <path d="M70.526,112.155 C72.061,111.275 74.825,109.731 77.751,108.097 C82.417,105.49 88.226,102.247 89.869,101.227 L91.417,100.266 L93.196,100.667 C100.434,102.298 123.718,112.756 133.392,117.176 C151.726,125.552 169.356,134.17 177.266,138.619 L180.523,140.452 L179.283,143.977 C165.094,184.309 121.504,272.867 97.919,304.17 L95.75,306.861 L93.084,306.306 C76.924,302.934 19.499,275.573 9.299,267.425 L8.864,267.077 L8.527,266.634 C7.311,265.027 1.838,256.773 0.689,253.099 L0.164,251.42 L0.927,249.837 C20.962,208.253 59.191,132.607 68.784,113.979 L69.386,112.81 L70.526,112.155" id="Fill-8" fill="#0F1120" sketch:type="MSShapeGroup"></path>
            <path d="M172.855,144.016 C157.036,135.115 102.511,109.842 92.165,107.51 C89.475,109.18 77.141,115.969 73.202,118.229 C63.178,137.696 26.513,210.285 7.178,250.415 C8.014,253.086 12.706,260.39 14.131,262.273 C23.143,269.472 78.324,296.026 93.896,299.275 C115.01,269.748 158.502,184.814 172.855,144.016" id="Fill-9" fill="#9E9F9E" sketch:type="MSShapeGroup"></path>
            <path d="M169.624,145.413 C154.277,136.778 101.936,112.418 91.899,110.155 C89.289,111.775 14.044,258.303 15.426,260.128 C24.169,267.112 78.147,293.704 93.254,296.857 C113.738,268.211 155.699,184.993 169.624,145.413" id="Fill-10" fill="#F2F2F1" sketch:type="MSShapeGroup"></path>
            <path d="M257.478,302.155 C246.164,301.884 157.033,289.231 150.504,287.753 L146.808,286.916 L146.338,283.156 C145.639,277.561 149.575,246.385 151.983,228.3 C153.9,213.905 158.535,180.07 160.165,176.791 L161.622,173.859 L165.207,173.792 C174.809,173.792 263.945,185.639 273.548,189.523 L277.14,190.977 L276.914,194.844 C275.944,211.435 264.826,290.905 262.812,298.195 L261.69,302.256 L257.478,302.155" id="Fill-11" fill="#0F1120" sketch:type="MSShapeGroup"></path>
            <path d="M151.696,282.486 C150.668,274.252 163.33,182.556 165,179.194 C174.017,179.019 263.279,191.195 271.523,194.529 C270.55,211.17 259.435,290.139 257.607,296.756 C247.456,296.514 158.666,284.064 151.696,282.486" id="Fill-12" fill="#9E9F9E" sketch:type="MSShapeGroup"></path>
            <path d="M153.208,281.722 C152.941,276.208 164.989,194.633 165.778,191.469 C174.39,191.346 259.475,203.073 267.363,205.987 C266.493,220.389 256.157,288.703 254.435,294.426 C244.736,294.182 159.871,283.11 153.208,281.722" id="Fill-13" fill="#F2F2F1" sketch:type="MSShapeGroup"></path>
            <path d="M250.306,283.095 C250.384,281.433 249.74,279.687 248.392,278.618 C247.743,278.103 246.658,277.536 245.834,277.455 C244.537,277.328 243.199,277.594 242.19,278.395 C239.639,280.423 240.26,285.927 243.431,287.288 C244.886,287.913 246.535,287.719 247.891,287.069 C249.429,286.334 250.228,284.756 250.306,283.095" id="Fill-14" fill="#9E9F9E" sketch:type="MSShapeGroup"></path>
            <path d="M245.942,267.517 C246.655,268.216 247.547,268.706 248.619,268.689 C253.56,268.615 257.97,261.911 252.622,259.159 C250.573,258.105 247.74,258.055 245.906,259.499 C244.172,260.862 243.488,263.139 244.348,265.109 C244.704,265.925 245.235,266.823 245.942,267.517" id="Fill-15" fill="#9E9F9E" sketch:type="MSShapeGroup"></path>
            <path d="M246.647,279.051 C245.315,278.17 243.558,277.816 242.012,278.351 C241.267,278.606 240.264,279.181 239.791,279.788 C239.047,280.745 238.606,281.928 238.769,283.117 C239.183,286.122 244.029,288.348 246.717,286.524 C247.949,285.688 248.601,284.296 248.735,282.91 C248.886,281.338 247.979,279.932 246.647,279.051" id="Fill-16" fill="#0F1120" sketch:type="MSShapeGroup"></path>
            <path d="M248.97,258.898 C248.11,258.602 247.195,258.535 246.35,258.937 C242.453,260.789 241.757,267.721 247.162,267.966 C249.233,268.06 251.507,267.073 252.361,265.261 C253.167,263.546 252.757,261.488 251.246,260.233 C250.621,259.714 249.822,259.192 248.97,258.898" id="Fill-17" fill="#0F1120" sketch:type="MSShapeGroup"></path>
            <path d="M180.559,290.455 C184.55,291.396 188.059,303.853 185.671,308.225 C165.892,307.935 138.836,309.449 127.448,313.143 C125.587,310.647 129.695,296.655 129.551,294.063 C135.651,294.794 170.419,291.021 180.559,290.455" id="Fill-18" fill="#0F1120" sketch:type="MSShapeGroup"></path>
            <path d="M225.179,211.574 C227.362,217.932 227.943,224.959 226.516,232.062 C222.308,253.001 202.273,266.632 181.769,262.516 C174.809,261.111 168.7,257.853 163.817,253.329 C168.073,265.712 178.438,275.515 191.985,278.24 C212.489,282.36 232.527,268.716 236.735,247.771 C239.516,233.944 234.692,220.375 225.179,211.574" id="Fill-19" fill="#1E2B36" sketch:type="MSShapeGroup"></path>
            <path d="M222.022,231.651 C222.067,231.418 222.114,231.185 222.156,230.95 C223.143,225.468 222.757,219.811 221.068,214.543 C216.717,210.835 211.377,208.168 205.337,207.081 C187.198,203.816 169.847,215.832 166.59,233.93 C165.563,239.635 166.066,245.261 167.797,250.392 C172.107,254.282 177.389,256.949 183.098,258.102 C200.906,261.677 218.372,249.811 222.022,231.651" id="Fill-20" fill="#428CAC" sketch:type="MSShapeGroup"></path>
            <path d="M196.857,267.459 C201.045,267.54 205.033,268.518 208.392,270.282 C212.35,272.362 215.357,275.502 217.09,279.362 C219.972,285.774 219.198,294.279 215.072,301.56 C211.17,308.445 205.095,312.845 198.407,313.633 C197.48,313.742 196.539,313.788 195.61,313.77 C187.185,313.607 179.074,307.997 174.95,299.48 C171.001,291.324 171.548,282.631 176.414,276.225 C180.643,270.655 188.477,267.296 196.856,267.459 L196.857,267.459" id="Fill-21" fill="#0F1120" sketch:type="MSShapeGroup"></path>
            <path d="M206.077,274.686 C197.916,270.396 185.572,272.39 180.376,279.232 C171.603,290.786 183.138,310.423 197.825,308.691 C209.419,307.327 217.005,291.31 212.552,281.4 C211.196,278.381 208.884,276.162 206.077,274.686" id="Fill-22" fill="#9E9F9E" sketch:type="MSShapeGroup"></path>
            <path d="M212.046,286.047 C211.764,283.796 210.389,280.214 209.101,278.923 C208.492,278.312 207.793,277.82 207.043,277.425 C205.206,281.223 195.072,289.796 180.638,285.111 C179.192,301.965 191.739,305.431 197.914,305.014 C207.578,304.361 212.972,293.433 212.046,286.047" id="Fill-23" fill="#F2F2F1" sketch:type="MSShapeGroup"></path>
            <path d="M211.773,188.655 C216.707,180.079 210.104,169.139 201.031,165.222 C186.98,159.155 171.363,169.592 170.726,182.147 C173.524,192.539 203.259,196.25 211.773,188.655" id="Fill-24" fill="#0F1120" sketch:type="MSShapeGroup"></path>
            <path d="M208.712,187.794 C212.868,180.571 207.306,171.357 199.665,168.059 C187.831,162.949 174.678,171.739 174.142,182.314 C175.827,189.579 201.541,194.191 208.712,187.794" id="Fill-25" fill="#9E9F9E" sketch:type="MSShapeGroup"></path>
            <path d="M204.924,178.046 C207.825,174.9 201.583,169.535 196.821,168.428 C189.447,166.712 179.019,171.704 178.312,176.118 C178.631,177.263 187.702,174.917 191.988,175.091 C199.572,175.398 201.982,179.828 204.924,178.046" id="Fill-26" fill="#F2F2F1" sketch:type="MSShapeGroup"></path>
            <path d="M207.435,271.685 C204.511,274.684 201.071,276.925 197.486,278.168 C193.261,279.632 188.914,279.679 184.912,278.302 C178.264,276.018 172.589,269.636 170.101,261.646 C167.748,254.09 168.693,246.648 172.693,241.23 C173.248,240.479 173.858,239.762 174.506,239.097 C180.389,233.062 190.028,230.983 199.063,233.801 C207.713,236.498 213.68,242.845 215.026,250.776 C216.195,257.671 213.287,265.682 207.435,271.684 L207.435,271.685" id="Fill-27" fill="#0F1120" sketch:type="MSShapeGroup"></path>
            <path d="M175.797,261.106 C180.232,260.32 188.387,270.456 187.542,275.52 C167.167,283.488 139.996,296.161 129.679,304.343 C126.858,302.795 125.945,288.058 124.849,285.706 C131.367,283.846 165.614,265.856 175.797,261.106" id="Fill-28" fill="#0F1120" sketch:type="MSShapeGroup"></path>
            <path d="M199.713,233.682 C198.535,236.613 190.945,241.348 186.724,239.363 C188.192,224.627 189.388,208.696 186.38,200.031 C187.554,196.23 198.33,193.828 202.45,197.966 C202.641,205.553 203.809,227.14 199.713,233.682" id="Fill-29" fill="#F2F2F1" sketch:type="MSShapeGroup"></path>
            <path d="M201.217,235.272 C200.034,239.199 187.387,241.941 183.169,239.292 C184.662,219.567 185.886,198.242 182.893,186.65 C184.074,181.558 199.959,176.879 200.405,188.423 C199.305,194.467 201.269,225.117 201.217,235.272" id="Fill-30" fill="#0F1120" sketch:type="MSShapeGroup"></path>
            <path d="M195.856,273.466 C204.568,270.447 211.557,260.08 210.12,251.609 C207.694,237.307 185.48,232.289 176.695,244.186 C169.761,253.577 176.254,270.066 186.529,273.597 C189.66,274.673 192.86,274.504 195.856,273.466" id="Fill-31" fill="#9E9F9E" sketch:type="MSShapeGroup"></path>
            <path d="M65.054,275.575 C57.932,274.123 51.13,273.179 45.902,272.917 C43.26,272.784 31.407,273.332 25.974,278.338 C23.583,280.542 23.033,282.96 22.993,284.6 C22.437,307.785 40.735,319.818 58.046,323.348 C62.645,324.285 67.111,324.584 70.302,324.168 C82.294,322.604 92.794,314.263 97.88,306.69 C101.321,301.568 102.553,296.691 101.442,292.588 C99.171,284.197 80.404,278.705 65.059,275.576 L65.054,275.575" id="Fill-32" fill="#0F1120" sketch:type="MSShapeGroup"></path>
            <path d="M28.391,284.744 C28.514,279.638 41.749,278.074 45.646,278.269 C62.042,279.092 94.361,287.059 96.229,293.964 C98.27,301.503 84.935,316.851 69.583,318.854 C60.158,320.083 27.7,313.514 28.391,284.744" id="Fill-33" fill="#9E9F9E" sketch:type="MSShapeGroup"></path>
            <path d="M31.55,284.935 C31.206,281.126 39.973,279.552 42.609,279.576 C53.7,279.682 76.091,284.617 77.924,289.705 C79.926,295.261 72.243,307.111 62.09,309.079 C55.857,310.287 33.489,306.397 31.55,284.935" id="Fill-34" fill="#F2F2F1" sketch:type="MSShapeGroup"></path>
            <path d="M183.353,260.616 C190.09,263.405 200.309,262.323 204.628,258.116 C211.922,251.016 202.441,238.594 190.286,239.48 C180.69,240.18 174.363,250.085 178.017,256.336 C179.129,258.24 181.036,259.657 183.353,260.616" id="Fill-35" fill="#F2F2F1" sketch:type="MSShapeGroup"></path>
            <path d="M309.444,268.31 C312.555,271.114 314.929,274.465 316.311,277.998 C317.94,282.162 318.155,286.505 316.936,290.557 C314.913,297.289 308.758,303.21 300.872,306.007 C293.412,308.653 285.94,308.001 280.371,304.215 C279.599,303.689 278.857,303.107 278.167,302.486 C271.908,296.844 269.454,287.294 271.917,278.156 C274.274,269.407 280.382,263.197 288.256,261.542 C295.099,260.103 303.217,262.697 309.443,268.309 L309.444,268.31" id="Fill-36" fill="#0F1120" sketch:type="MSShapeGroup"></path>
            <path d="M311.677,279.81 C308.32,271.223 297.688,264.644 289.279,266.411 C275.083,269.394 270.936,291.787 283.168,300.1 C292.823,306.662 309.045,299.53 312.172,289.124 C313.125,285.954 312.831,282.763 311.677,279.81" id="Fill-37" fill="#9E9F9E" sketch:type="MSShapeGroup"></path>
            <path d="M307.353,277.425 C307.181,277.633 307.009,277.84 306.828,278.043 C301.048,285.48 292.111,289.57 282.743,292.189 C283.233,295.046 284.7,297.493 287.091,298.771 C289.037,299.811 291.402,300.019 293.879,299.623 C301.08,298.469 309.218,292.197 310.695,286.352 C311.641,282.61 310.13,279.482 307.353,277.425" id="Fill-38" fill="#F2F2F1" sketch:type="MSShapeGroup"></path>
            <path d="M304.473,245.08 C307.584,247.884 309.958,251.235 311.34,254.769 C312.968,258.932 313.184,263.275 311.965,267.327 C309.942,274.06 303.787,279.98 295.901,282.777 C288.441,285.424 280.969,284.771 275.4,280.985 C274.628,280.46 273.886,279.878 273.196,279.257 C266.937,273.614 264.483,264.064 266.945,254.926 C269.303,246.177 275.411,239.967 283.285,238.312 C290.127,236.874 298.246,239.467 304.472,245.079 L304.473,245.08" id="Fill-39" fill="#0F1120" sketch:type="MSShapeGroup"></path>
            <path d="M306.705,256.58 C303.348,247.993 292.716,241.414 284.307,243.182 C270.111,246.164 265.965,268.558 278.196,276.87 C287.851,283.433 304.073,276.301 307.2,265.894 C308.153,262.725 307.859,259.533 306.705,256.58" id="Fill-40" fill="#9E9F9E" sketch:type="MSShapeGroup"></path>
            <path d="M302.429,259.595 C303.019,252.831 297.6,245.722 290.852,244.936 C279.46,243.61 268.528,258.16 274.498,266.856 C279.211,273.721 293.545,272.651 299.499,266.178 C301.313,264.205 302.226,261.92 302.429,259.595" id="Fill-41" fill="#F2F2F1" sketch:type="MSShapeGroup"></path>
            <path d="M106.643,275.305 C104.655,274.794 102.726,274.432 100.909,274.227 C86.364,272.596 61.089,279.516 51.073,305.271 C50.097,307.781 50.359,310.596 51.812,313.194 C56.022,320.727 72.916,327.988 77.466,329.157 C78.377,329.392 79.197,329.531 79.972,329.582 C85.485,329.947 109.681,322.474 109.923,322.398 C136.307,314.184 139.434,309.666 140.485,305.39 C143.729,292.181 120.178,278.782 106.643,275.305" id="Fill-42" fill="#0F1120" sketch:type="MSShapeGroup"></path>
            <path d="M54.306,308.644 C52.477,313.344 74.55,323.879 78.445,324.136 C82.339,324.394 135.112,310.458 136.829,303.468 C138.704,295.835 116.057,281.038 100.658,279.31 C91.205,278.25 64.814,281.619 54.306,308.644" id="Fill-43" fill="#9E9F9E" sketch:type="MSShapeGroup"></path>
            <path d="M58.115,307.613 C56.642,311.4 72.306,318.53 75.443,318.738 C77.301,318.861 96.047,288.548 127.514,294.263 C123.978,289.293 103.847,280.896 97.806,281.492 C90.229,282.239 66.583,285.836 58.115,307.613" id="Fill-44" fill="#F2F2F1" sketch:type="MSShapeGroup"></path>
            <path d="M386.744,235.538 C394.45,235.538 406.895,239.876 416.01,249.4 C423.509,257.235 426.939,266.819 425.929,277.113 C425.075,285.818 420.008,293.873 411.662,299.794 C404.872,304.611 396.327,307.603 389.362,307.603 C386.531,307.603 384.021,307.119 381.9,306.166 C356.722,294.845 353.137,280.001 354.563,269.542 C356.914,252.304 374.78,237.348 383.56,235.801 C384.549,235.626 385.621,235.538 386.744,235.538" id="Fill-45" fill="#0F1120" sketch:type="MSShapeGroup"></path>
            <path d="M419.184,276.514 C417.411,294.589 393.201,304.116 384.793,300.335 C336.575,278.656 375.221,243.828 384.793,242.141 C394.366,240.453 421.532,252.568 419.184,276.514" id="Fill-46" fill="#9E9F9E" sketch:type="MSShapeGroup"></path>
            <path d="M409.003,256.557 C404.965,263.841 396.365,267.941 388.252,269.76 C382.339,271.083 372.779,272.409 365.693,269.881 C364.407,279.02 368.747,289.064 385.606,297.101 C392.741,300.501 413.288,291.932 414.792,275.669 C415.514,267.874 412.947,261.48 409.003,256.557" id="Fill-47" fill="#F2F2F1" sketch:type="MSShapeGroup"></path>
            <path d="M394.232,261.336 C385.356,263.918 370.097,263.213 358.108,256.869 C349.162,252.137 343.139,244.85 340.691,235.798 C338.474,227.603 341.718,217.88 349.824,208.417 C356.325,200.826 365.038,194.609 372.021,192.578 C375.088,191.685 377.877,191.566 380.309,192.223 C396.95,196.716 407.33,209.618 408.786,227.624 C409.815,240.347 405.887,255.966 397.534,260.078 C396.559,260.559 395.448,260.981 394.232,261.336" id="Fill-48" fill="#0F1120" sketch:type="MSShapeGroup"></path>
            <path d="M347.226,234.017 C342.923,218.106 369.468,196.068 378.322,198.458 C411.181,207.329 403.299,250.042 394.579,254.336 C385.858,258.631 353.506,257.232 347.226,234.017" id="Fill-49" fill="#9E9F9E" sketch:type="MSShapeGroup"></path>
            <path d="M349.678,231.51 C346.135,218.347 369.743,199.639 377.475,201.497 C406.17,208.391 398.632,244.012 390.92,247.709 C383.207,251.407 354.847,250.717 349.678,231.51" id="Fill-50" fill="#F2F2F1" sketch:type="MSShapeGroup"></path>
            <path d="M92.152,249.272 C92.143,249.04 92.131,248.809 92.118,248.575 C90.97,229.286 67.438,218.352 50.271,227.531 C33.736,236.372 38.446,256.63 52.771,266.933 C72.266,280.953 92.948,269.555 92.152,249.272" id="Fill-51" fill="#0F1120" sketch:type="MSShapeGroup"></path>
            <path d="M80.996,233.422 C79.833,232.445 78.575,231.568 77.236,230.816 C64.038,236.468 51.673,247.311 52.892,261.648 C53.652,262.329 54.451,262.98 55.293,263.585 C55.513,263.744 58.538,265.645 58.759,265.795 C62.104,241.971 76.447,235.584 80.996,233.422" id="Fill-52" fill="#428CAC" sketch:type="MSShapeGroup"></path>
            <path d="M61.083,248.772 C64.241,241.955 71.478,237.007 78.238,233.669 C77.955,233.472 77.671,233.274 77.38,233.088 C74.624,233.968 71.953,235.079 69.417,236.656 C64.76,239.552 60.131,244.457 57.496,249.996 C57.251,250.786 57.028,251.566 56.826,252.319 C56.069,255.137 55.445,258.085 55.587,261.02 L55.588,261.043 C55.92,261.31 56.255,261.575 56.603,261.826 C56.63,261.845 56.706,261.894 56.814,261.965 C57.157,257.428 58.719,252.561 61.083,248.772" id="Fill-53" fill="#60BCDC" sketch:type="MSShapeGroup"></path>
            <path d="M142.375,154.198 C142.366,153.966 142.354,153.734 142.341,153.501 C141.193,134.212 117.661,123.278 100.494,132.457 C83.96,141.298 88.669,161.556 102.994,171.857 C122.489,185.879 143.171,174.48 142.375,154.198" id="Fill-54" fill="#0F1120" sketch:type="MSShapeGroup"></path>
            <path d="M110.268,167.812 C109.457,160.125 110.979,154.232 115.828,148.056 C119.879,142.898 124.348,139.717 129.635,137.455 C127.773,135.781 125.642,134.379 123.339,133.292 C118.382,135.685 113.542,138.643 110.746,143.52 C105.946,151.895 105.107,162.703 107.861,172.055 C109.015,172.556 110.163,172.954 111.3,173.274 C110.757,171.426 110.447,169.509 110.268,167.812" id="Fill-55" fill="#428CAC" sketch:type="MSShapeGroup"></path>
            <path d="M109.406,156.621 C109.731,155.197 110.216,153.843 110.96,152.63 C111.008,152.467 111.059,152.311 111.114,152.167 C112.365,148.967 114.186,145.952 116.56,143.46 C119.325,140.559 122.63,139.166 126.093,137.314 C125.232,136.513 124.33,135.744 123.298,135.435 C119.73,137.408 116.634,140.141 113.956,143.633 C110.674,147.911 109.252,152.242 108.769,156.912 C108.981,156.816 109.19,156.712 109.406,156.621" id="Fill-56" fill="#60BCDC" sketch:type="MSShapeGroup"></path>
            <path d="M109.481,226.073 C107.067,227.789 111.391,245.188 117.542,236.909 C119.67,234.043 111.171,224.873 109.481,226.073" id="Fill-57" fill="#9E9F9E" sketch:type="MSShapeGroup"></path>
            <path d="M49.074,175.068 C34.925,168.97 15.771,161.266 7.368,159.629 C14.509,165.389 30.114,177.253 43.147,186.608 C45.557,187.551 51.464,177.594 49.074,175.068" id="Fill-58" fill="#0F1120" sketch:type="MSShapeGroup"></path>
            <path d="M11.601,148.148 C13.893,147.798 16.264,148.139 18.46,149.133 C23.763,151.534 27.115,156.08 27.426,161.292 C27.723,166.271 25.132,170.919 20.495,173.727 C18.655,174.841 16.689,175.564 14.654,175.873 C11.02,176.426 7.523,175.597 4.809,173.538 C2.081,171.469 0.398,168.391 -0.061,164.634 C-1.001,156.94 4.449,149.236 11.6,148.148 L11.601,148.148" id="Fill-59" fill="#0F1120" sketch:type="MSShapeGroup"></path>
            <path d="M5.069,163.945 C5.897,170.722 12.528,172.512 17.828,169.303 C24.341,165.359 23.552,157.11 16.374,153.86 C10.164,151.05 4.299,157.642 5.069,163.945" id="Fill-60" fill="#428CAC" sketch:type="MSShapeGroup"></path>
            <path d="M7.825,161.326 C8.297,165.352 12.805,166.328 16.47,164.345 C20.974,161.906 20.546,157.002 15.686,155.163 C11.481,153.573 7.385,157.581 7.825,161.326" id="Fill-61" fill="#60BCDC" sketch:type="MSShapeGroup"></path>
            <path d="M11.481,157.615 C11.616,158.843 13.297,159.093 14.695,158.446 C16.414,157.651 16.307,156.153 14.501,155.644 C12.939,155.201 11.356,156.474 11.481,157.615" id="Fill-62" fill="#F2F2F1" sketch:type="MSShapeGroup"></path>
            <path d="M10.615,115.387 C10.401,115.849 14.794,119.862 15.167,119.704 C18.559,114.952 21.966,113.612 21.966,113.612 L22.155,127.182 C22.155,127.182 25.352,130.787 25.829,130.884 C26.49,131.02 36.799,122.474 36.165,121.279 C35.531,120.086 33.091,116.497 32.501,116.632 C31.91,116.767 30.096,119.698 27.755,121.127 C27.374,119.162 27.602,110.526 27.448,109.322 C27.296,108.12 23.898,106.067 23.178,106.248 C22.142,106.506 11.814,112.794 10.615,115.387" id="Fill-63" fill="#60BCDC" sketch:type="MSShapeGroup"></path>
            <path d="M68.598,84.463 C69.316,83.77 64.748,75.478 63.94,75.532 C54.326,81.914 47.029,82.191 47.029,82.191 L56.007,57.835 C56.007,57.835 52.598,51.631 51.776,51.161 C50.631,50.507 25.467,59.375 25.832,61.901 C26.198,64.427 28.199,70.132 29.397,70.258 C30.594,70.385 38.399,65.605 43.763,64.507 C43.125,68.255 38.354,83.402 37.812,85.647 C37.27,87.891 40.58,93.069 42.05,93.195 C44.168,93.377 64.573,88.35 68.598,84.463" id="Fill-64" fill="#60BCDC" sketch:type="MSShapeGroup"></path>
            <path d="M115.972,58.958 C116.868,57.405 117.552,49.163 117.462,47.093 C105.433,46.399 90.945,41.977 90.945,41.977 L124.686,18.64 C124.686,18.64 126.507,8.106 126.007,6.808 C121.791,5.448 85.875,-0.126 82.255,0.063 C81.497,2.161 81.204,10.911 82.444,12.128 C87.671,12.956 106.439,14.532 109.837,15.528 C105.685,19.493 80.936,33.495 78.63,36.1 C77.996,36.815 76.521,46.035 76.516,48.996 C81.988,51.623 110.296,58.64 115.972,58.958" id="Fill-65" fill="#60BCDC" sketch:type="MSShapeGroup"></path>
        </g>
    </g>
</svg>